<svg xmlns="http://www.w3.org/2000/svg" xmlns:xlink="http://www.w3.org/1999/xlink" width="500" zoomAndPan="magnify" viewBox="0 0 375 374.999991" height="500" preserveAspectRatio="xMidYMid meet" version="1.0"><defs><g/><clipPath id="9c9ed3adbb"><path d="M 156.125 173.960938 L 219 173.960938 L 219 238.460938 L 156.125 238.460938 Z M 156.125 173.960938 " clip-rule="nonzero"/></clipPath></defs><g fill="#107656" fill-opacity="1"><g transform="translate(33.515829, 248.85938)"><g><path d="M 9.984375 -103.703125 C 12.671875 -106.390625 15.875 -107.734375 19.59375 -107.734375 C 23.320312 -107.734375 26.523438 -106.390625 29.203125 -103.703125 C 31.890625 -101.023438 33.234375 -97.820312 33.234375 -94.09375 C 33.234375 -90.375 31.890625 -87.171875 29.203125 -84.484375 C 26.523438 -81.804688 23.320312 -80.46875 19.59375 -80.46875 C 15.875 -80.46875 12.671875 -81.804688 9.984375 -84.484375 C 7.304688 -87.171875 5.96875 -90.375 5.96875 -94.09375 C 5.96875 -97.820312 7.304688 -101.023438 9.984375 -103.703125 Z M 7.78125 -66.578125 L 7.78125 0 L 30.765625 0 L 30.765625 -66.578125 Z M 7.78125 -66.578125 "/></g></g></g><g fill="#107656" fill-opacity="1"><g transform="translate(62.589902, 248.85938)"><g><path d="M 7.78125 0 L 7.78125 -66.578125 L 30.765625 -66.578125 L 30.765625 -59.578125 L 31.015625 -59.578125 C 36.992188 -65.546875 43.359375 -68.53125 50.109375 -68.53125 C 54.953125 -68.53125 59.492188 -67.535156 63.734375 -65.546875 C 67.972656 -63.554688 71.171875 -60.484375 73.328125 -56.328125 C 80.078125 -64.460938 87.4375 -68.53125 95.40625 -68.53125 C 102.5 -68.53125 108.597656 -66.539062 113.703125 -62.5625 C 118.804688 -58.582031 121.359375 -52.351562 121.359375 -43.875 L 121.359375 0 L 98.390625 0 L 98.390625 -37.640625 C 98.390625 -41.191406 97.414062 -44.15625 95.46875 -46.53125 C 93.519531 -48.914062 90.597656 -50.109375 86.703125 -50.109375 C 83.328125 -50.109375 80.753906 -49.085938 78.984375 -47.046875 C 77.210938 -45.015625 76.238281 -42.570312 76.0625 -39.71875 L 76.0625 0 L 53.09375 0 L 53.09375 -37.640625 C 53.09375 -41.191406 52.117188 -44.15625 50.171875 -46.53125 C 48.222656 -48.914062 45.300781 -50.109375 41.40625 -50.109375 C 37.851562 -50.109375 35.191406 -49.003906 33.421875 -46.796875 C 31.648438 -44.585938 30.765625 -41.96875 30.765625 -38.9375 L 30.765625 0 Z M 7.78125 0 "/></g></g></g><g fill="#107656" fill-opacity="1"><g transform="translate(180.315267, 248.85938)"><g><path d="M 4.796875 16.359375 L 23.625 7.140625 C 27.082031 12.847656 33.097656 15.703125 41.671875 15.703125 C 45.648438 15.703125 49.347656 14.425781 52.765625 11.875 C 56.179688 9.320312 57.890625 5.40625 57.890625 0.125 L 57.890625 -4.796875 C 53.816406 -0.296875 46.546875 1.953125 36.078125 1.953125 C 26.472656 1.953125 18.554688 -1.441406 12.328125 -8.234375 C 6.097656 -15.035156 2.984375 -23.367188 2.984375 -33.234375 C 2.984375 -43.097656 6.097656 -51.445312 12.328125 -58.28125 C 18.554688 -65.113281 26.472656 -68.53125 36.078125 -68.53125 C 44.648438 -68.53125 51.789062 -65.890625 57.5 -60.609375 L 57.890625 -60.609375 L 57.890625 -66.578125 L 80.859375 -66.578125 L 80.859375 1.8125 C 80.859375 12.632812 77.265625 20.984375 70.078125 26.859375 C 62.898438 32.742188 53.429688 35.6875 41.671875 35.6875 C 22.628906 35.6875 10.335938 29.242188 4.796875 16.359375 Z M 31.859375 -44.515625 C 28.878906 -41.578125 27.390625 -37.8125 27.390625 -33.21875 C 27.390625 -28.632812 28.816406 -24.894531 31.671875 -22 C 34.523438 -19.101562 38.289062 -17.65625 42.96875 -17.65625 C 47.46875 -17.65625 51.164062 -19.125 54.0625 -22.0625 C 56.957031 -25.007812 58.40625 -28.734375 58.40625 -33.234375 C 58.40625 -37.816406 56.910156 -41.578125 53.921875 -44.515625 C 50.941406 -47.460938 47.289062 -48.9375 42.96875 -48.9375 C 38.550781 -48.9375 34.847656 -47.460938 31.859375 -44.515625 Z M 31.859375 -44.515625 "/></g></g></g><g fill="#107656" fill-opacity="1"><g transform="translate(258.841965, 248.85938)"><g><path d="M 7.78125 0 L 7.78125 -66.578125 L 30.765625 -66.578125 L 30.765625 -56.984375 L 31.015625 -56.984375 C 31.191406 -57.328125 31.472656 -57.757812 31.859375 -58.28125 C 32.253906 -58.800781 33.097656 -59.707031 34.390625 -61 C 35.691406 -62.300781 37.078125 -63.46875 38.546875 -64.5 C 40.015625 -65.539062 41.914062 -66.472656 44.25 -67.296875 C 46.59375 -68.117188 48.976562 -68.53125 51.40625 -68.53125 C 53.90625 -68.53125 56.367188 -68.179688 58.796875 -67.484375 C 61.222656 -66.796875 63 -66.109375 64.125 -65.421875 L 65.9375 -64.375 L 56.328125 -44.90625 C 53.472656 -47.332031 49.492188 -48.546875 44.390625 -48.546875 C 41.617188 -48.546875 39.238281 -47.9375 37.25 -46.71875 C 35.257812 -45.507812 33.851562 -44.039062 33.03125 -42.3125 C 32.207031 -40.582031 31.625 -39.109375 31.28125 -37.890625 C 30.9375 -36.679688 30.765625 -35.734375 30.765625 -35.046875 L 30.765625 0 Z M 7.78125 0 "/></g></g></g><g fill="#107656" fill-opacity="1"><g transform="translate(313.356236, 248.85938)"><g><path d="M 22.578125 -27.78125 C 26.734375 -27.78125 30.257812 -26.328125 33.15625 -23.421875 C 36.0625 -20.523438 37.515625 -17 37.515625 -12.84375 C 37.515625 -8.78125 36.0625 -5.296875 33.15625 -2.390625 C 30.257812 0.503906 26.734375 1.953125 22.578125 1.953125 C 18.515625 1.953125 15.03125 0.503906 12.125 -2.390625 C 9.226562 -5.296875 7.78125 -8.78125 7.78125 -12.84375 C 7.78125 -17 9.226562 -20.523438 12.125 -23.421875 C 15.03125 -26.328125 18.515625 -27.78125 22.578125 -27.78125 Z M 22.578125 -27.78125 "/></g></g></g><g clip-path="url(#9c9ed3adbb)"><path fill="#e4e1da" d="M 218.859375 205.679688 L 209.609375 205.679688 C 193.769531 202.25 190.246094 198.71875 186.820312 182.855469 L 186.820312 173.960938 L 185.648438 173.960938 L 185.648438 182.949219 C 182.226562 198.730469 178.6875 202.257812 162.878906 205.679688 L 156.128906 205.679688 L 156.128906 206.851562 L 162.878906 206.851562 C 178.6875 210.269531 182.226562 213.796875 185.648438 229.582031 L 185.648438 238.402344 L 186.820312 238.402344 L 186.820312 229.675781 C 190.246094 213.8125 193.769531 210.277344 209.609375 206.851562 L 218.859375 206.851562 Z M 218.859375 205.679688 " fill-opacity="1" fill-rule="nonzero"/></g></svg>